<?xml version="1.0" encoding="UTF-8" standalone="no"?>
<svg
   xmlns:dc="http://purl.org/dc/elements/1.1/"
   xmlns:cc="http://creativecommons.org/ns#"
   xmlns:rdf="http://www.w3.org/1999/02/22-rdf-syntax-ns#"
   xmlns:svg="http://www.w3.org/2000/svg"
   xmlns="http://www.w3.org/2000/svg"
   xmlns:sodipodi="http://sodipodi.sourceforge.net/DTD/sodipodi-0.dtd"
   xmlns:inkscape="http://www.inkscape.org/namespaces/inkscape"
   width="19.6in"
   height="11.6in"
   viewBox="0 0 19.6 11.6"
   version="1.1"
   preserveAspectRatio="xMidYMid meet"
   id="svg8"
   sodipodi:docname="box(1).svg"
   inkscape:version="0.92.4 (5da689c313, 2019-01-14)">
  <metadata
     id="metadata14">
    <rdf:RDF>
      <cc:Work
         rdf:about="">
        <dc:format>image/svg+xml</dc:format>
        <dc:type
           rdf:resource="http://purl.org/dc/dcmitype/StillImage" />
        <dc:title></dc:title>
      </cc:Work>
    </rdf:RDF>
  </metadata>
  <defs
     id="defs12" />
  <sodipodi:namedview
     pagecolor="#ffffff"
     bordercolor="#666666"
     borderopacity="1"
     objecttolerance="10"
     gridtolerance="10"
     guidetolerance="10"
     inkscape:pageopacity="0"
     inkscape:pageshadow="2"
     inkscape:window-width="1920"
     inkscape:window-height="1001"
     id="namedview10"
     showgrid="false"
     inkscape:zoom="0.35087719"
     inkscape:cx="1613.9529"
     inkscape:cy="721.20256"
     inkscape:window-x="-9"
     inkscape:window-y="-9"
     inkscape:window-maximized="1"
     inkscape:current-layer="svg8"
     fit-margin-top="0"
     fit-margin-left="0"
     fit-margin-right="0"
     fit-margin-bottom="0" />
  <g
     id="g884"
     transform="translate(0.05,-7.95)">
    <path
       d="m 0,14.5 v 0.73 h 0.118 v 1.18 H 0 v 1.18 h 0.118 v 1.18 H 0 V 19.5 H 1.62 V 19.382 H 2.8 V 19.5 H 3.98 V 19.382 H 5.16 V 19.5 H 6.34 V 19.382 H 7.52 V 19.5 H 8.7 V 19.382 H 9.88 V 19.5 h 1.18 0.44 V 18.77 H 11.382 V 17.59 H 11.5 V 16.41 H 11.382 V 15.23 H 11.5 V 14.5 Z"
       id="front_outsideCutPath"
       style="font-size:12px;vector-effect:non-scaling-stroke;fill:none;fill-rule:evenodd;stroke:#ff0000;stroke-width:0.1;stroke-linecap:round"
       inkscape:connector-curvature="0" />
    <path
       d="m 0,9.375 v 0.73 h 0.118 v 1.18 H 0 v 1.18 h 0.118 v 1.18 H 0 v 0.73 H 1.62 V 14.257 H 2.8 v 0.118 h 1.18 v -0.118 h 1.18 v 0.118 h 1.18 v -0.118 h 1.18 v 0.118 H 8.7 v -0.118 h 1.18 v 0.118 h 1.18 0.44 v -0.73 h -0.118 v -1.18 H 11.5 v -1.18 h -0.118 v -1.18 H 11.5 v -0.73 z"
       id="back_outsideCutPath"
       style="font-size:12px;vector-effect:non-scaling-stroke;fill:none;fill-rule:evenodd;stroke:#ff0000;stroke-width:0.1;stroke-linecap:round"
       inkscape:connector-curvature="0" />
  </g>
  <g
     id="g880"
     transform="rotate(-90,21.425,21.375)">
    <path
       d="M 31.368,0.118 V 2.08 H 31.25 v 1.18 h 0.118 V 4.44 H 31.25 v 1.18 h 0.118 V 6.8 H 31.25 v 1.18 h 0.118 V 9.16 H 31.25 v 1.18 h 0.118 v 1.18 H 31.25 v 1.18 h 0.118 v 1.18 H 31.25 v 1.18 h 0.118 v 1.18 H 31.25 v 1.18 h 0.118 v 1.18 0.782 H 32.87 V 19.5 h 1.18 v -0.118 h 1.18 V 19.5 h 1.18 v -0.118 h 1.18 V 19.5 h 1.18 v -0.118 h 1.18 V 19.5 h 1.18 v -0.118 h 1.18 0.322 V 17.42 H 42.75 V 16.24 H 42.632 V 15.06 H 42.75 V 13.88 H 42.632 V 12.7 H 42.75 V 11.52 H 42.632 V 10.34 H 42.75 V 9.16 H 42.632 V 7.98 H 42.75 V 6.8 H 42.632 V 5.62 H 42.75 V 4.44 H 42.632 V 3.26 H 42.75 V 2.08 H 42.632 V 0.9 0.118 H 41.13 V 0 H 39.95 V 0.118 H 38.77 V 0 H 37.59 V 0.118 H 36.41 V 0 H 35.23 V 0.118 H 34.05 V 0 h -1.18 v 0.118 h -1.18 z"
       id="bottom_outsideCutPath"
       style="font-size:12px;vector-effect:non-scaling-stroke;fill:none;fill-rule:evenodd;stroke:#008000;stroke-width:0.1;stroke-linecap:round"
       inkscape:connector-curvature="0" />
    <g
       id="g876"
       transform="rotate(90,27.197382,16.240265)">
      <ellipse
         style="fill:none;stroke:#008000;stroke-width:0.00573696;stroke-miterlimit:4;stroke-dasharray:none"
         id="path4524"
         cx="-9.1126413"
         cy="14.207117"
         rx="2.4971313"
         ry="2.4971316"
         transform="rotate(-90)" />
      <ellipse
         ry="2.4971316"
         rx="2.4971313"
         cy="27.207117"
         cx="-9.1126413"
         id="ellipse4535"
         style="fill:none;stroke:#008000;stroke-width:0.00573696;stroke-miterlimit:4;stroke-dasharray:none"
         transform="rotate(-90)" />
      <ellipse
         style="fill:none;stroke:#008000;stroke-width:0.00573958;stroke-miterlimit:4;stroke-dasharray:none"
         id="ellipse4537"
         cx="-9.1126413"
         cy="20.707117"
         rx="2.4971313"
         ry="2.4971316"
         transform="rotate(-90)" />
      <rect
         style="fill:none;stroke:#008000;stroke-width:0.00520833;stroke-miterlimit:4;stroke-dasharray:none"
         id="rect4539"
         width="0.49840045"
         height="0.74840045"
         x="-6.2485476"
         y="20.332916"
         transform="rotate(-90)" />
      <rect
         y="13.832917"
         x="-6.1581545"
         height="0.74840045"
         width="0.49840045"
         id="rect4541"
         style="fill:none;stroke:#008000;stroke-width:0.00520833;stroke-miterlimit:4;stroke-dasharray:none"
         transform="rotate(-90)" />
      <rect
         style="fill:none;stroke:#008000;stroke-width:0.00520833;stroke-miterlimit:4;stroke-dasharray:none"
         id="rect4543"
         width="0.24788605"
         height="0.24788605"
         x="-6.123292"
         y="21.524637"
         transform="rotate(-90)" />
      <rect
         y="15.024627"
         x="-6.0328989"
         height="0.24788605"
         width="0.24788605"
         id="rect4545"
         style="fill:none;stroke:#008000;stroke-width:0.00520833;stroke-miterlimit:4;stroke-dasharray:none"
         transform="rotate(-90)" />
      <circle
         style="fill:none;stroke:#008000;stroke-width:0.00515749;stroke-miterlimit:4;stroke-dasharray:none"
         id="path830"
         cx="29.420057"
         cy="5.9993472"
         r="0.18492125" />
    </g>
  </g>
  <g
     id="g868"
     transform="translate(-11.575,-7.95)">
    <path
       d="m 11.743,14.5 v 0.73 h -0.118 v 1.18 h 0.118 v 1.18 h -0.118 v 1.18 h 0.118 v 0.73 h 1.962 v -0.118 h 1.18 V 19.5 h 1.18 v -0.118 h 1.18 V 19.5 h 1.18 v -0.118 h 1.18 V 19.5 h 1.18 v -0.118 h 1.18 V 19.5 h 1.18 v -0.118 h 1.18 V 19.5 h 1.18 v -0.118 h 1.18 V 19.5 h 1.18 v -0.118 h 1.18 V 19.5 h 1.18 0.782 v -0.73 h 0.118 v -1.18 h -0.118 v -1.18 h 0.118 V 15.23 H 31.007 V 14.5 Z"
       id="left_outsideCutPath"
       style="font-size:12px;vector-effect:non-scaling-stroke;fill:none;fill-rule:evenodd;stroke:#0000ff;stroke-width:0.1;stroke-linecap:round"
       inkscape:connector-curvature="0" />
    <path
       d="m 11.743,9.375 v 0.73 h -0.118 v 1.18 h 0.118 v 1.18 h -0.118 v 1.18 h 0.118 v 0.73 h 1.962 v -0.118 h 1.18 v 0.118 h 1.18 v -0.118 h 1.18 v 0.118 h 1.18 v -0.118 h 1.18 v 0.118 h 1.18 v -0.118 h 1.18 v 0.118 h 1.18 v -0.118 h 1.18 v 0.118 h 1.18 v -0.118 h 1.18 v 0.118 h 1.18 v -0.118 h 1.18 v 0.118 h 1.18 0.782 v -0.73 h 0.118 v -1.18 h -0.118 v -1.18 h 0.118 v -1.18 h -0.118 v -0.73 z"
       id="right_outsideCutPath"
       style="font-size:12px;vector-effect:non-scaling-stroke;fill:none;fill-rule:evenodd;stroke:#0000ff;stroke-width:0.1;stroke-linecap:round"
       inkscape:connector-curvature="0" />
    <circle
       r="1.4733068"
       style="fill:none;stroke:#0000ff;stroke-width:0.00338635;stroke-miterlimit:4;stroke-dasharray:none"
       id="ellipse4547"
       cx="15.444016"
       cy="11.875" />
    <rect
       style="fill:none;stroke:#0000ff;stroke-width:0.00398228;stroke-miterlimit:4;stroke-dasharray:none"
       id="rect4549"
       width="0.14601772"
       height="0.24601771"
       x="12.889227"
       y="11.751991" />
    <circle
       cy="17"
       cx="15.444016"
       id="circle4561"
       style="fill:none;stroke:#0000ff;stroke-width:0.00338635;stroke-miterlimit:4;stroke-dasharray:none"
       r="1.4733068" />
  </g>
</svg>
